<?xml version="1.0" standalone="no"?>
<!DOCTYPE svg PUBLIC "-//W3C//DTD SVG 20010904//EN"
 "http://www.w3.org/TR/2001/REC-SVG-20010904/DTD/svg10.dtd">
<svg version="1.0" xmlns="http://www.w3.org/2000/svg"
 width="250.000000pt" height="100.000000pt" viewBox="0 0 250.000000 100.000000"
 preserveAspectRatio="xMidYMid meet">

<g transform="translate(0.000000,100.000000) scale(0.100000,-0.100000)"
fill="#000000" stroke="none">
<path d="M830 635 c0 -269 1 -288 21 -326 25 -50 82 -78 157 -79 57 0 60 -5
36 -51 -8 -17 -14 -33 -12 -35 3 -2 64 99 136 225 l132 228 0 162 0 161 -65 0
-64 0 -3 -275 c-3 -232 -5 -277 -18 -285 -8 -6 -49 -9 -90 -8 -68 3 -76 5 -87
28 -9 18 -13 95 -13 283 l0 257 -65 0 -65 0 0 -285z"/>
<path d="M1472 763 c-5 -10 -33 -97 -62 -193 -28 -96 -55 -179 -59 -183 -4 -4
-16 22 -26 59 -18 66 -18 67 3 117 12 28 20 52 18 54 -2 2 -29 -42 -61 -98
l-58 -102 21 -66 c11 -36 35 -112 52 -168 25 -84 34 -103 50 -103 20 0 18 -8
126 350 25 85 50 162 55 170 5 9 9 -42 9 -122 l0 -138 65 0 65 0 -2 218 -3
217 -92 3 c-80 2 -93 0 -101 -15z"/>
<path d="M1540 280 c0 -18 7 -20 65 -20 58 0 65 2 65 20 0 18 -7 20 -65 20
-58 0 -65 -2 -65 -20z"/>
<path d="M1098 194 c-32 -55 -58 -103 -58 -107 0 -14 110 -8 116 6 3 8 3 56 2
108 l-3 94 -57 -101z"/>
<path d="M1542 163 l3 -78 60 0 60 0 3 78 3 77 -66 0 -66 0 3 -77z"/>
</g>
</svg>
